# Blender v3.0.1 OBJ File: ''
# www.blender.org
mtllib cubeThing.mtl
o Cube
v 1.000000 1.000000 -1.000000
v 1.000000 -1.000000 -1.000000
v 1.000000 1.000000 1.000000
v 1.000000 -1.000000 1.000000
v -1.000000 1.000000 -1.000000
v -1.000000 -1.000000 -1.000000
v -1.000000 1.000000 1.000000
v -1.000000 -1.000000 1.000000
vt 0.995251 0.014358
vt 1.011207 0.014358
vt 1.011207 1.004860
vt 0.995251 1.004860
vt 0.004749 1.004860
vt 0.995251 1.078998
vt 0.004749 1.078998
vt 0.004749 -1.064828
vt 0.995251 -1.064828
vt 0.995251 -0.976144
vt 0.004749 -0.976144
vt 0.003114 0.014358
vt 0.004749 0.014358
vt 0.003114 1.004860
vt 0.995251 0.014358
vt 0.995251 1.004860
vt 0.004749 1.004860
vt 0.004749 0.014358
vt 0.004749 -0.133143
vt 0.995251 -0.133143
vn 0.0000 1.0000 0.0000
vn 0.0000 0.0000 1.0000
vn -1.0000 0.0000 0.0000
vn 0.0000 -1.0000 0.0000
vn 1.0000 0.0000 0.0000
vn 0.0000 0.0000 -1.0000
usemtl Material
s off
f 1/1/1 5/2/1 7/3/1 3/4/1
f 4/5/2 3/4/2 7/6/2 8/7/2
f 8/8/3 7/9/3 5/10/3 6/11/3
f 6/12/4 2/13/4 4/5/4 8/14/4
f 2/15/5 1/16/5 3/17/5 4/18/5
f 6/19/6 5/20/6 1/1/6 2/13/6
o Cube.001
v -0.372074 -1.798058 0.991578
v -0.341525 -0.995703 0.979325
v -0.372074 -1.798058 0.167073
v -0.341525 -0.995703 0.179326
v 1.706703 -1.798058 0.991578
v 1.466641 -1.158126 0.876762
v 1.706703 -1.798058 0.167073
v 1.466641 -1.158126 0.281889
v -0.372074 -1.621684 0.991578
v -0.372074 -1.621684 0.167073
v 1.660663 -1.657493 0.189685
v 1.660663 -1.657493 0.968966
v -0.341525 -1.536036 0.979325
v -0.341525 -1.536036 0.179326
v 1.607687 -1.588756 0.212616
v 1.607687 -1.588756 0.946035
v 0.245556 -1.798058 0.167073
v 0.195702 -1.043961 0.209798
v 0.245556 -1.798058 0.991578
v 0.195702 -1.043961 0.948853
v 0.231876 -1.632323 0.984859
v 0.231876 -1.632323 0.173792
v 0.237609 -1.551700 0.969434
v 0.237609 -1.551700 0.189216
v -0.063259 -1.798058 0.167073
v -0.072912 -1.116512 0.964089
v -0.070099 -1.627003 0.988219
v -0.051958 -1.543868 0.974380
v -0.072912 -1.116512 0.194562
v -0.063259 -1.798058 0.991578
v -0.070099 -1.627003 0.170432
v -0.051958 -1.543868 0.184271
vt 0.414541 0.476427
vt 0.452306 0.476427
vt 0.452306 0.532340
vt 0.414541 0.532340
vt 0.437654 0.509928
vt 0.408694 0.485750
vt 0.268269 0.484585
vt 0.276761 0.492655
vt 0.418463 0.480533
vt 0.456016 0.480533
vt 0.456016 0.536133
vt 0.418463 0.536133
vt 0.406749 0.493506
vt 0.457760 0.493506
vt 0.457760 0.504725
vt 0.406749 0.504725
vt 0.449813 0.431846
vt 0.274091 0.410871
vt 0.274091 0.343112
vt 0.449813 0.322138
vt 0.306082 0.625979
vt 0.314437 0.625979
vt 0.314437 0.682225
vt 0.306082 0.682225
vt 0.484583 0.268618
vt 0.484583 0.251382
vt 0.515949 0.251382
vt 0.515949 0.268618
vt 0.266696 0.268618
vt 0.266696 0.251382
vt 0.271739 0.251382
vt 0.271739 0.268618
vt 0.452461 0.348261
vt 0.452461 0.401739
vt 0.276739 0.401739
vt 0.276739 0.348261
vt 0.391020 0.369429
vt 0.402750 0.369429
vt 0.402750 0.424261
vt 0.391020 0.424261
vt 0.419086 0.353366
vt 0.416995 0.353366
vt 0.416995 0.350558
vt 0.419086 0.350558
vt 0.419086 0.388350
vt 0.416995 0.388350
vt 0.416995 0.369454
vt 0.419086 0.369454
vt 0.419086 0.401631
vt 0.416995 0.401631
vt 0.419086 0.426141
vt 0.416995 0.426141
vt 0.416995 0.407245
vt 0.419086 0.407245
vt 0.419086 0.404438
vt 0.416995 0.404438
vt 0.416995 0.356173
vt 0.419086 0.356173
vt 0.489600 0.348261
vt 0.489600 0.401739
vt 0.449884 0.251382
vt 0.449884 0.268618
vt 0.310833 0.608703
vt 0.485722 0.607585
vt 0.485722 0.687100
vt 0.310833 0.685556
vt 0.486952 0.431846
vt 0.486952 0.322138
vt 0.474660 0.502730
vt 0.474660 0.475994
vt 0.295382 0.480039
vt 0.295382 0.525677
vt 0.414541 0.540646
vt 0.452305 0.540646
vt 0.452306 0.548953
vt 0.414541 0.548953
vt 0.524091 0.410871
vt 0.524091 0.343112
vt 0.526739 0.348261
vt 0.526739 0.401739
vt 0.297726 0.625979
vt 0.297726 0.682225
vt 0.406749 0.482286
vt 0.457760 0.482286
vn -1.0000 0.0000 0.0000
vn 0.0418 0.1033 -0.9938
vn 0.9503 0.3113 0.0000
vn 0.0388 0.0115 0.9992
vn 0.0000 -1.0000 0.0000
vn 0.4102 0.9120 0.0000
vn 0.0056 0.0098 0.9999
vn 0.0063 0.0965 -0.9953
vn 0.0172 0.1479 0.9889
vn 0.7921 0.6104 0.0000
vn 0.0192 0.2544 -0.9669
vn -0.9419 0.3359 0.0000
vn 0.0177 0.1734 -0.9847
vn 0.0192 0.2544 0.9669
vn 0.0058 0.0303 -0.9995
vn 0.0063 0.0965 0.9953
vn 0.0895 0.9960 0.0000
vn 0.0418 0.1033 0.9938
vn 0.0320 0.0351 -0.9989
vn 0.0388 0.0115 -0.9992
vn 0.0056 0.0098 -0.9999
vn 0.0172 0.1479 -0.9889
vn 0.0177 0.1734 0.9847
vn 0.0058 0.0303 0.9995
vn -0.2608 0.9654 -0.0000
vn 0.0320 0.0351 0.9989
usemtl Material.001
s off
f 21/21/7 10/22/7 12/23/7 22/24/7
f 32/25/8 26/26/8 16/27/8 23/28/8
f 23/29/9 16/30/9 14/31/9 24/32/9
f 36/33/10 34/34/10 10/35/10 21/36/10
f 25/37/11 15/38/11 13/39/11 27/40/11
f 37/41/12 12/42/12 10/43/12 34/44/12
f 38/45/13 35/46/13 17/47/13 9/48/13
f 15/49/9 19/50/9 20/51/9 13/52/9
f 25/53/14 30/54/14 19/55/14 15/56/14
f 9/57/7 17/58/7 18/59/7 11/60/7
f 35/61/15 36/62/15 21/63/15 17/64/15
f 19/65/16 23/66/16 24/67/16 20/68/16
f 30/69/17 32/70/17 23/66/17 19/65/17
f 17/71/18 21/72/18 22/73/18 18/74/18
f 39/75/19 40/76/19 32/70/19 30/69/19
f 20/68/20 24/67/20 31/77/20 29/78/20
f 33/79/21 39/80/21 30/54/21 25/53/21
f 13/52/22 20/51/22 29/81/22 27/82/22
f 16/83/23 26/84/23 28/85/23 14/86/23
f 33/87/11 25/37/11 27/40/11 38/88/11
f 24/89/24 14/90/24 28/91/24 31/92/24
f 40/93/25 37/94/25 26/95/25 32/96/25
f 22/24/26 12/23/26 37/94/26 40/93/26
f 11/97/11 33/87/11 38/88/11 9/98/11
f 11/99/27 18/100/27 39/80/27 33/79/27
f 18/74/28 22/73/28 40/76/28 39/75/28
f 29/78/29 31/77/29 36/62/29 35/61/29
f 27/82/30 29/81/30 35/46/30 38/45/30
f 26/101/31 37/41/31 34/44/31 28/102/31
f 31/103/32 28/104/32 34/34/32 36/33/32
o Cube.002
v -0.372074 -1.798058 -0.189457
v -0.341525 -0.995703 -0.201709
v -0.372074 -1.798058 -1.013962
v -0.341525 -0.995703 -1.001709
v 1.706703 -1.798058 -0.189457
v 1.466641 -1.158126 -0.304273
v 1.706703 -1.798058 -1.013962
v 1.466641 -1.158126 -0.899146
v -0.372074 -1.621684 -0.189457
v -0.372074 -1.621684 -1.013962
v 1.660663 -1.657493 -0.991350
v 1.660663 -1.657493 -0.212069
v -0.341525 -1.536036 -0.201709
v -0.341525 -1.536036 -1.001709
v 1.607687 -1.588756 -0.968419
v 1.607687 -1.588756 -0.235000
v 0.245556 -1.798058 -1.013962
v 0.195702 -1.043961 -0.971236
v 0.245556 -1.798058 -0.189457
v 0.195702 -1.043961 -0.232182
v 0.231876 -1.632323 -0.196175
v 0.231876 -1.632323 -1.007243
v 0.237609 -1.551700 -0.211600
v 0.237609 -1.551700 -0.991818
v -0.063259 -1.798058 -1.013962
v -0.072912 -1.116512 -0.216946
v -0.070099 -1.627003 -0.192816
v -0.051958 -1.543868 -0.206655
v -0.072912 -1.116512 -0.986473
v -0.063259 -1.798058 -0.189457
v -0.070099 -1.627003 -1.010602
v -0.051958 -1.543868 -0.996764
vt 0.414541 0.476427
vt 0.452306 0.476427
vt 0.452306 0.532340
vt 0.414541 0.532340
vt 0.437654 0.509928
vt 0.408694 0.485750
vt 0.268269 0.484585
vt 0.276761 0.492655
vt 0.418463 0.480533
vt 0.456016 0.480533
vt 0.456016 0.536133
vt 0.418463 0.536133
vt 0.406749 0.493506
vt 0.457760 0.493506
vt 0.457760 0.504725
vt 0.406749 0.504725
vt 0.449813 0.431846
vt 0.274091 0.410871
vt 0.274091 0.343112
vt 0.449813 0.322138
vt 0.306082 0.625979
vt 0.314437 0.625979
vt 0.314437 0.682225
vt 0.306082 0.682225
vt 0.484583 0.268618
vt 0.484583 0.251382
vt 0.515949 0.251382
vt 0.515949 0.268618
vt 0.266696 0.268618
vt 0.266696 0.251382
vt 0.271739 0.251382
vt 0.271739 0.268618
vt 0.452461 0.348261
vt 0.452461 0.401739
vt 0.276739 0.401739
vt 0.276739 0.348261
vt 0.391020 0.369429
vt 0.402750 0.369429
vt 0.402750 0.424261
vt 0.391020 0.424261
vt 0.419086 0.353366
vt 0.416995 0.353366
vt 0.416995 0.350558
vt 0.419086 0.350558
vt 0.419086 0.388350
vt 0.416995 0.388350
vt 0.416995 0.369454
vt 0.419086 0.369454
vt 0.419086 0.401631
vt 0.416995 0.401631
vt 0.419086 0.426141
vt 0.416995 0.426141
vt 0.416995 0.407245
vt 0.419086 0.407245
vt 0.419086 0.404438
vt 0.416995 0.404438
vt 0.416995 0.356173
vt 0.419086 0.356173
vt 0.489600 0.348261
vt 0.489600 0.401739
vt 0.449884 0.251382
vt 0.449884 0.268618
vt 0.310833 0.608703
vt 0.485722 0.607585
vt 0.485722 0.687100
vt 0.310833 0.685556
vt 0.486952 0.431846
vt 0.486952 0.322138
vt 0.474660 0.502730
vt 0.474660 0.475994
vt 0.295382 0.480039
vt 0.295382 0.525677
vt 0.414541 0.540646
vt 0.452305 0.540646
vt 0.452306 0.548953
vt 0.414541 0.548953
vt 0.524091 0.410871
vt 0.524091 0.343112
vt 0.526739 0.348261
vt 0.526739 0.401739
vt 0.297726 0.625979
vt 0.297726 0.682225
vt 0.406749 0.482286
vt 0.457760 0.482286
vn -1.0000 0.0000 0.0000
vn 0.0418 0.1033 -0.9938
vn 0.9503 0.3113 0.0000
vn 0.0388 0.0115 0.9992
vn 0.0000 -1.0000 0.0000
vn 0.4102 0.9120 0.0000
vn 0.0056 0.0098 0.9999
vn 0.0063 0.0965 -0.9953
vn 0.0172 0.1479 0.9889
vn 0.7921 0.6104 0.0000
vn 0.0192 0.2544 -0.9669
vn -0.9419 0.3359 0.0000
vn 0.0177 0.1734 -0.9847
vn 0.0192 0.2544 0.9669
vn 0.0058 0.0303 -0.9995
vn 0.0063 0.0965 0.9953
vn 0.0895 0.9960 0.0000
vn 0.0418 0.1033 0.9938
vn 0.0320 0.0351 -0.9989
vn 0.0388 0.0115 -0.9992
vn 0.0056 0.0098 -0.9999
vn 0.0172 0.1479 -0.9889
vn 0.0177 0.1734 0.9847
vn 0.0058 0.0303 0.9995
vn -0.2608 0.9654 -0.0000
vn 0.0320 0.0351 0.9989
usemtl Material.002
s off
f 53/105/33 42/106/33 44/107/33 54/108/33
f 64/109/34 58/110/34 48/111/34 55/112/34
f 55/113/35 48/114/35 46/115/35 56/116/35
f 68/117/36 66/118/36 42/119/36 53/120/36
f 57/121/37 47/122/37 45/123/37 59/124/37
f 69/125/38 44/126/38 42/127/38 66/128/38
f 70/129/39 67/130/39 49/131/39 41/132/39
f 47/133/35 51/134/35 52/135/35 45/136/35
f 57/137/40 62/138/40 51/139/40 47/140/40
f 41/141/33 49/142/33 50/143/33 43/144/33
f 67/145/41 68/146/41 53/147/41 49/148/41
f 51/149/42 55/150/42 56/151/42 52/152/42
f 62/153/43 64/154/43 55/150/43 51/149/43
f 49/155/44 53/156/44 54/157/44 50/158/44
f 71/159/45 72/160/45 64/154/45 62/153/45
f 52/152/46 56/151/46 63/161/46 61/162/46
f 65/163/47 71/164/47 62/138/47 57/137/47
f 45/136/48 52/135/48 61/165/48 59/166/48
f 48/167/49 58/168/49 60/169/49 46/170/49
f 65/171/37 57/121/37 59/124/37 70/172/37
f 56/173/50 46/174/50 60/175/50 63/176/50
f 72/177/51 69/178/51 58/179/51 64/180/51
f 54/108/52 44/107/52 69/178/52 72/177/52
f 43/181/37 65/171/37 70/172/37 41/182/37
f 43/183/53 50/184/53 71/164/53 65/163/53
f 50/158/54 54/157/54 72/160/54 71/159/54
f 61/162/55 63/161/55 68/146/55 67/145/55
f 59/166/56 61/165/56 67/130/56 70/129/56
f 58/185/57 69/125/57 66/128/57 60/186/57
f 63/187/58 60/188/58 66/118/58 68/117/58
